<svg width="1440" height="347" viewBox="0 0 1440 347" fill="none" xmlns="http://www.w3.org/2000/svg">
<path d="M0 91.7079C73.3159 110.049 -37.5979 281.708 128.303 205.049C294.204 128.391 297.023 248.317 367.52 226.683C438.016 205.05 502.872 116.634 618.956 171.658C735.039 226.683 778.277 134.505 854.882 128.391C931.488 122.277 1056.97 205.049 1121.36 205.049C1185.74 205.049 1207.36 165.074 1231.8 128.391C1256.24 91.7079 1277.86 82.7723 1308.41 42.797C1332.85 10.8168 1406.32 0.940594 1440 0V380H0V91.7079Z" fill="#205070"/>
<path d="M0 138.225C73.3159 156.47 -37.5979 327.225 128.303 250.97C294.204 174.715 297.024 294.01 367.52 272.49C438.016 250.97 502.872 163.02 618.956 217.755C735.039 272.49 778.277 180.797 854.883 174.715C931.488 168.634 1056.97 250.97 1121.36 250.97C1185.74 250.97 1207.36 211.205 1231.8 174.715C1256.24 138.225 1277.86 129.337 1308.41 89.5718C1332.85 57.7599 1406.32 47.9356 1440 47V425H0V138.225Z" fill="#2980B9"/>
<path d="M0 176.708C73.3159 195.05 -37.5979 366.708 128.303 290.05C294.204 213.391 297.024 333.317 367.52 311.683C438.016 290.05 502.872 201.634 618.956 256.658C735.039 311.683 778.277 219.505 854.883 213.391C931.488 207.277 1056.97 290.05 1121.36 290.05C1185.74 290.05 1207.36 250.074 1231.8 213.391C1256.24 176.708 1277.86 167.772 1308.41 127.797C1332.85 95.8168 1406.32 85.9406 1440 85V423.5H0V176.708Z" fill="#8BB8D5"/>
<path d="M0 231.225C73.3159 249.47 -37.5979 420.225 128.303 343.97C294.204 267.715 297.024 387.01 367.52 365.49C438.016 343.97 502.872 256.02 618.956 310.755C735.039 365.49 778.277 273.797 854.883 267.715C931.488 261.634 1056.97 343.97 1121.36 343.97C1185.74 343.97 1207.36 304.205 1231.8 267.715C1256.24 231.225 1277.86 222.337 1308.41 182.572C1332.85 150.76 1406.32 140.936 1440 140V427H0V231.225Z" fill="#ECF0F1"/>
</svg>
