<svg xmlns="http://www.w3.org/2000/svg" width="1440" height="891" viewBox="0 0 1440 891" fill="none">
<path fill-rule="evenodd" clip-rule="evenodd" d="M308.083 -236.095C383.657 -317.029 510.533 -321.373 591.466 -245.798C672.4 -170.223 676.744 -43.348 601.169 37.5857C525.594 118.519 398.719 122.863 317.785 47.2885C236.852 -28.2863 232.508 -155.162 308.083 -236.095ZM1259 6.5C1259 53.1681 1221.17 91 1174.5 91C1127.83 91 1090 53.1681 1090 6.5C1090 -40.1681 1127.83 -78 1174.5 -78C1221.17 -78 1259 -40.1681 1259 6.5ZM61 17C61 39.0914 43.0914 57 21 57C-1.09139 57 -19 39.0914 -19 17C-19 -5.0914 -1.09139 -23 21 -23C43.0914 -23 61 -5.0914 61 17ZM1385 217C1385 239.091 1367.09 257 1345 257C1322.91 257 1305 239.091 1305 217C1305 194.909 1322.91 177 1345 177C1367.09 177 1385 194.909 1385 217ZM1213 400C1225.7 400 1236 389.703 1236 377C1236 364.297 1225.7 354 1213 354C1200.3 354 1190 364.297 1190 377C1190 389.703 1200.3 400 1213 400ZM323 319.5C323 382.737 271.737 434 208.5 434C145.263 434 94 382.737 94 319.5C94 256.263 145.263 205 208.5 205C271.737 205 323 256.263 323 319.5ZM1459.5 904C1570.23 904 1660 814.233 1660 703.5C1660 592.767 1570.23 503 1459.5 503C1348.77 503 1259 592.767 1259 703.5C1259 814.233 1348.77 904 1459.5 904ZM1031.98 1347.67C1015.83 1332.59 990.52 1333.46 975.443 1349.6C960.366 1365.75 961.232 1391.06 977.379 1406.14C993.525 1421.22 1018.84 1420.35 1033.91 1404.2C1048.99 1388.06 1048.12 1362.75 1031.98 1347.67ZM77.1458 859.687C120.305 813.468 192.759 810.987 238.978 854.146C285.197 897.304 287.678 969.759 244.519 1015.98C201.361 1062.2 128.906 1064.68 82.6868 1021.52C36.4679 978.361 33.9871 905.906 77.1458 859.687ZM1014 949C1036.09 949 1054 931.091 1054 909C1054 886.909 1036.09 869 1014 869C991.909 869 974 886.909 974 909C974 931.091 991.909 949 1014 949ZM790.102 627.671C755.993 595.82 702.522 597.651 670.671 631.76C638.82 665.869 640.651 719.34 674.76 751.191C708.869 783.042 762.34 781.211 794.191 747.102C826.042 712.993 824.211 659.522 790.102 627.671Z" fill="#161F27" fill-opacity="0.71"/>
</svg>