<svg width="109" height="109" viewBox="0 0 109 109" fill="none" xmlns="http://www.w3.org/2000/svg">
<circle cx="54.5" cy="54.5" r="53" fill="#ECF0F1" stroke="#2980B9" stroke-width="3"/>
<path d="M53.6348 73.1878C58.0837 75.2671 61.0497 74.574 64.0157 71.8016" stroke="#2980B9" stroke-linecap="round"/>
<path fill-rule="evenodd" clip-rule="evenodd" d="M69.2728 19.9634C71.6984 19.9634 73.6647 21.9297 73.6647 24.3553C74.4647 24.3553 75.2147 24.5692 75.8607 24.9428C76.5067 24.5692 77.2567 24.3553 78.0566 24.3553C80.4822 24.3553 82.4486 26.3216 82.4486 28.7472C82.4486 29.5299 82.2438 30.2648 81.8849 30.9013C83.1043 31.6817 83.9125 33.048 83.9125 34.6031C83.9125 35.728 83.4897 36.7541 82.7942 37.5311C83.4897 38.3081 83.9125 39.3342 83.9125 40.459C83.9125 41.76 83.3469 42.9288 82.4481 43.733C81.9722 52.2626 79.5206 60.9547 79.5206 60.9547C79.5206 60.9547 79.5206 49.6702 76.8457 47.4306C76.3183 47.6548 75.738 47.7789 75.1287 47.7789C73.821 47.7789 72.6468 47.2074 71.8422 46.3005C69.7026 46.1277 67.9961 44.4212 67.8232 42.2815C67.7217 42.1915 67.6244 42.0968 67.5317 41.9978C66.9081 43.6644 65.3011 44.8509 63.4169 44.8509C61.502 44.8509 59.8734 43.6255 59.2724 41.9161C59.1905 41.9207 59.108 41.923 59.0249 41.923C57.1407 41.923 55.5337 40.7365 54.9101 39.0699C54.1088 39.9248 52.9693 40.459 51.7051 40.459C50.5802 40.459 49.5541 40.0361 48.7771 39.3407C48.7383 39.3754 48.6989 39.4094 48.6589 39.4428C48.7362 39.7689 48.7771 40.1092 48.7771 40.459C48.7771 42.8846 46.8108 44.8509 44.3852 44.8509C43.0283 44.8509 41.8151 44.2356 41.0095 43.2688C40.6833 43.3461 40.3431 43.387 39.9932 43.387C39.9102 43.387 39.8277 43.3847 39.7458 43.3801C39.284 44.6934 38.2157 45.721 36.8771 46.1268C36.4356 47.5836 35.2574 48.7203 33.7761 49.1033C31.2237 52.3383 29.7454 60.2227 29.7454 60.2227C29.7454 60.2227 27.2486 49.8829 27.9421 40.4661C27.2429 39.6882 26.8175 38.6593 26.8175 37.5311C26.8175 36.4062 27.2403 35.3801 27.9358 34.6031C27.2403 33.8261 26.8175 32.8 26.8175 31.6752C26.8175 29.7603 28.0429 28.1317 29.7523 27.5307C29.7477 27.4488 29.7454 27.3663 29.7454 27.2832C29.7454 24.8576 31.7117 22.8913 34.1373 22.8913C34.2204 22.8913 34.3029 22.8936 34.3848 22.8982C34.9858 21.1888 36.6144 19.9634 38.5293 19.9634C39.1006 19.9634 39.6464 20.0724 40.1471 20.2709C40.6546 18.4064 42.3598 17.0354 44.3852 17.0354C45.51 17.0354 46.5361 17.4583 47.3131 18.1537C48.0901 17.4583 49.1162 17.0354 50.2411 17.0354C51.0238 17.0354 51.7587 17.2402 52.3951 17.599C53.1755 16.3797 54.5419 15.5714 56.097 15.5714C57.9812 15.5714 59.5883 16.7579 60.2118 18.4245C61.0131 17.5696 62.1526 17.0354 63.4169 17.0354C65.4422 17.0354 67.1474 18.4064 67.655 20.2709C68.1556 20.0724 68.7015 19.9634 69.2728 19.9634Z" fill="#2980B9"/>
<path fill-rule="evenodd" clip-rule="evenodd" d="M38.5293 54.1348C38.5293 53.8587 38.7532 53.6348 39.0293 53.6348H49.7411C50.0173 53.6348 50.2411 53.8587 50.2411 54.1348L50.2411 57.0267H59.025V58.0267H50.2411L50.2411 60.9187C50.2411 61.7471 49.5695 62.4187 48.7411 62.4187H40.0293C39.2009 62.4187 38.5293 61.7471 38.5293 60.9187V54.1348ZM59.025 54.1348C59.025 53.8587 59.2488 53.6348 59.525 53.6348H70.2368C70.5129 53.6348 70.7368 53.8587 70.7368 54.1348V60.9187C70.7368 61.7471 70.0652 62.4187 69.2368 62.4187H60.525C59.6965 62.4187 59.025 61.7471 59.025 60.9187V54.1348Z" fill="#2980B9"/>
<path d="M23.5457 90.7886V85.4513H21.4408V84.211H27.1727V85.4513H25.0679V90.7886H23.5457Z" fill="#2980B9"/>
<path d="M30.7323 90.7886V89.8019L30.6384 89.5858V87.8193C30.6384 87.5061 30.5413 87.2617 30.3471 87.0863C30.1592 86.9109 29.8679 86.8232 29.4732 86.8232C29.2038 86.8232 28.9376 86.8671 28.6745 86.9548C28.4177 87.0362 28.1984 87.149 28.0167 87.2931L27.4905 86.2688C27.7662 86.0746 28.0982 85.9243 28.4866 85.8178C28.875 85.7113 29.2696 85.6581 29.6705 85.6581C30.4411 85.6581 31.0393 85.8397 31.4653 86.2031C31.8913 86.5664 32.1042 87.1333 32.1042 87.9038V90.7886H30.7323ZM29.1913 90.8638C28.7967 90.8638 28.4584 90.798 28.1765 90.6664C27.8946 90.5286 27.6785 90.3438 27.5281 90.112C27.3778 89.8802 27.3026 89.6203 27.3026 89.3321C27.3026 89.0314 27.3746 88.7683 27.5187 88.5428C27.6691 88.3173 27.904 88.1419 28.2235 88.0166C28.5429 87.885 28.9595 87.8193 29.4732 87.8193H30.8169V88.6744H29.6329C29.2884 88.6744 29.0504 88.7307 28.9188 88.8435C28.7935 88.9563 28.7309 89.0972 28.7309 89.2663C28.7309 89.4543 28.8029 89.6046 28.947 89.7174C29.0973 89.8239 29.3009 89.8771 29.5578 89.8771C29.8021 89.8771 30.0213 89.8207 30.2155 89.708C30.4097 89.589 30.5507 89.4167 30.6384 89.1912L30.8639 89.8677C30.7574 90.1935 30.5632 90.4409 30.2813 90.61C29.9994 90.7792 29.6361 90.8638 29.1913 90.8638Z" fill="#2980B9"/>
<path d="M33.9781 92.6867C33.715 92.6867 33.455 92.646 33.1982 92.5645C32.9414 92.4831 32.7315 92.3703 32.5686 92.2263L33.1042 91.1832C33.217 91.2835 33.3454 91.3618 33.4895 91.4181C33.6398 91.4745 33.7871 91.5027 33.9311 91.5027C34.1379 91.5027 34.3007 91.4526 34.4198 91.3524C34.545 91.2584 34.6578 91.0987 34.758 90.8731L35.0211 90.253L35.1339 90.0932L36.9474 85.7332H38.3569L36.0735 91.0987C35.9107 91.5059 35.7227 91.8253 35.5098 92.0571C35.303 92.2889 35.0712 92.4518 34.8144 92.5457C34.5638 92.6397 34.2851 92.6867 33.9781 92.6867ZM34.8426 90.9859L32.5874 85.7332H34.1003L35.848 89.9617L34.8426 90.9859Z" fill="#2980B9"/>
<path d="M42.0277 85.6581C42.4287 85.6581 42.7857 85.7395 43.0989 85.9024C43.4184 86.059 43.669 86.3033 43.8507 86.6353C44.0323 86.9611 44.1232 87.3808 44.1232 87.8944V90.7886H42.6573V88.12C42.6573 87.7128 42.5665 87.4121 42.3848 87.2179C42.2094 87.0237 41.9588 86.9266 41.6331 86.9266C41.4013 86.9266 41.1914 86.9767 41.0035 87.0769C40.8218 87.1709 40.6778 87.3181 40.5713 87.5186C40.471 87.719 40.4209 87.9759 40.4209 88.2891V90.7886H38.9551V85.7332H40.3551V87.1333L40.092 86.7105C40.2737 86.3722 40.5337 86.1122 40.872 85.9306C41.2102 85.7489 41.5955 85.6581 42.0277 85.6581Z" fill="#2980B9"/>
<path d="M48.5528 90.7886V89.8019L48.4588 89.5858V87.8193C48.4588 87.5061 48.3617 87.2617 48.1675 87.0863C47.9796 86.9109 47.6883 86.8232 47.2936 86.8232C47.0243 86.8232 46.758 86.8671 46.4949 86.9548C46.2381 87.0362 46.0188 87.149 45.8372 87.2931L45.3109 86.2688C45.5866 86.0746 45.9186 85.9243 46.307 85.8178C46.6954 85.7113 47.09 85.6581 47.4909 85.6581C48.2615 85.6581 48.8597 85.8397 49.2857 86.2031C49.7117 86.5664 49.9247 87.1333 49.9247 87.9038V90.7886H48.5528ZM47.0117 90.8638C46.6171 90.8638 46.2788 90.798 45.9969 90.6664C45.715 90.5286 45.4989 90.3438 45.3485 90.112C45.1982 89.8802 45.123 89.6203 45.123 89.3321C45.123 89.0314 45.1951 88.7683 45.3391 88.5428C45.4895 88.3173 45.7244 88.1419 46.0439 88.0166C46.3634 87.885 46.7799 87.8193 47.2936 87.8193H48.6373V88.6744H47.4534C47.1088 88.6744 46.8708 88.7307 46.7392 88.8435C46.6139 88.9563 46.5513 89.0972 46.5513 89.2663C46.5513 89.4543 46.6233 89.6046 46.7674 89.7174C46.9178 89.8239 47.1213 89.8771 47.3782 89.8771C47.6225 89.8771 47.8418 89.8207 48.0359 89.708C48.2301 89.589 48.3711 89.4167 48.4588 89.1912L48.6843 89.8677C48.5778 90.1935 48.3836 90.4409 48.1017 90.61C47.8198 90.7792 47.4565 90.8638 47.0117 90.8638Z" fill="#2980B9"/>
<path d="M51.2513 90.7886V85.7332H52.6514V87.1615L52.4541 86.7481C52.6044 86.391 52.8456 86.1216 53.1776 85.94C53.5096 85.752 53.9137 85.6581 54.3898 85.6581V87.0112C54.3271 87.0049 54.2708 87.0018 54.2206 87.0018C54.1705 86.9955 54.1173 86.9924 54.0609 86.9924C53.66 86.9924 53.3342 87.1083 53.0837 87.34C52.8393 87.5656 52.7172 87.9195 52.7172 88.4019V90.7886H51.2513Z" fill="#2980B9"/>
<path d="M58.0319 90.7886V89.8019L57.9379 89.5858V87.8193C57.9379 87.5061 57.8408 87.2617 57.6466 87.0863C57.4587 86.9109 57.1674 86.8232 56.7728 86.8232C56.5034 86.8232 56.2372 86.8671 55.9741 86.9548C55.7172 87.0362 55.498 87.149 55.3163 87.2931L54.7901 86.2688C55.0657 86.0746 55.3977 85.9243 55.7861 85.8178C56.1745 85.7113 56.5692 85.6581 56.9701 85.6581C57.7406 85.6581 58.3388 85.8397 58.7648 86.2031C59.1908 86.5664 59.4038 87.1333 59.4038 87.9038V90.7886H58.0319ZM56.4909 90.8638C56.0962 90.8638 55.7579 90.798 55.476 90.6664C55.1941 90.5286 54.978 90.3438 54.8277 90.112C54.6773 89.8802 54.6022 89.6203 54.6022 89.3321C54.6022 89.0314 54.6742 88.7683 54.8183 88.5428C54.9686 88.3173 55.2035 88.1419 55.523 88.0166C55.8425 87.885 56.2591 87.8193 56.7728 87.8193H58.1165V88.6744H56.9325C56.588 88.6744 56.3499 88.7307 56.2184 88.8435C56.0931 88.9563 56.0304 89.0972 56.0304 89.2663C56.0304 89.4543 56.1025 89.6046 56.2466 89.7174C56.3969 89.8239 56.6005 89.8771 56.8573 89.8771C57.1016 89.8771 57.3209 89.8207 57.5151 89.708C57.7093 89.589 57.8502 89.4167 57.9379 89.1912L58.1634 89.8677C58.057 90.1935 57.8628 90.4409 57.5809 90.61C57.299 90.7792 56.9356 90.8638 56.4909 90.8638Z" fill="#2980B9"/>
<path d="M63.495 90.7886V84.211H66.4831C67.1972 84.211 67.8268 84.3488 68.3718 84.6244C68.9168 84.8938 69.3428 85.2728 69.6497 85.7614C69.9567 86.25 70.1101 86.8295 70.1101 87.4998C70.1101 88.1638 69.9567 88.7433 69.6497 89.2382C69.3428 89.7268 68.9168 90.1089 68.3718 90.3845C67.8268 90.6539 67.1972 90.7886 66.4831 90.7886H63.495ZM65.0172 89.5388H66.4079C66.8464 89.5388 67.2254 89.4574 67.5449 89.2945C67.8706 89.1254 68.1212 88.8873 68.2966 88.5804C68.4783 88.2734 68.5691 87.9132 68.5691 87.4998C68.5691 87.0801 68.4783 86.7199 68.2966 86.4192C68.1212 86.1122 67.8706 85.8773 67.5449 85.7144C67.2254 85.5453 66.8464 85.4607 66.4079 85.4607H65.0172V89.5388Z" fill="#2980B9"/>
<path d="M71.1548 90.7886V85.7332H72.6206V90.7886H71.1548ZM71.8877 85.0285C71.6183 85.0285 71.3991 84.9502 71.2299 84.7936C71.0608 84.637 70.9762 84.4428 70.9762 84.211C70.9762 83.9792 71.0608 83.785 71.2299 83.6284C71.3991 83.4718 71.6183 83.3935 71.8877 83.3935C72.1571 83.3935 72.3763 83.4687 72.5455 83.619C72.7146 83.7631 72.7992 83.951 72.7992 84.1828C72.7992 84.4271 72.7146 84.6307 72.5455 84.7936C72.3826 84.9502 72.1633 85.0285 71.8877 85.0285Z" fill="#2980B9"/>
<path d="M77.0537 85.6581C77.4547 85.6581 77.8117 85.7395 78.125 85.9024C78.4444 86.059 78.695 86.3033 78.8767 86.6353C79.0583 86.9611 79.1492 87.3808 79.1492 87.8944V90.7886H77.6833V88.12C77.6833 87.7128 77.5925 87.4121 77.4108 87.2179C77.2354 87.0237 76.9848 86.9266 76.6591 86.9266C76.4273 86.9266 76.2175 86.9767 76.0295 87.0769C75.8479 87.1709 75.7038 87.3181 75.5973 87.5186C75.4971 87.719 75.4469 87.9759 75.4469 88.2891V90.7886H73.9811V85.7332H75.3812V87.1333L75.1181 86.7105C75.2997 86.3722 75.5597 86.1122 75.898 85.9306C76.2362 85.7489 76.6215 85.6581 77.0537 85.6581Z" fill="#2980B9"/>
<path d="M80.4779 90.7886V85.7332H81.9438V90.7886H80.4779ZM81.2108 85.0285C80.9415 85.0285 80.7222 84.9502 80.5531 84.7936C80.3839 84.637 80.2994 84.4428 80.2994 84.211C80.2994 83.9792 80.3839 83.785 80.5531 83.6284C80.7222 83.4718 80.9415 83.3935 81.2108 83.3935C81.4802 83.3935 81.6995 83.4687 81.8686 83.619C82.0377 83.7631 82.1223 83.951 82.1223 84.1828C82.1223 84.4271 82.0377 84.6307 81.8686 84.7936C81.7057 84.9502 81.4865 85.0285 81.2108 85.0285Z" fill="#2980B9"/>
<path d="M82.9565 90.7886V89.9053L85.9446 86.3722L86.1984 86.8608H83.0223V85.7332H87.3823V86.6165L84.3942 90.1496L84.1311 89.661H87.4669V90.7886H82.9565Z" fill="#2980B9"/>
</svg>
